<svg width="129" height="140" viewBox="0 0 129 140" fill="none" xmlns="http://www.w3.org/2000/svg">
<ellipse cx="64.1989" cy="124.397" rx="64.1989" ry="15.5997" fill="url(#paint0_radial_868_18738)" fill-opacity="0.45"/>
<path d="M126 54.5399C126 66.6097 118.358 74.088 117.05 75.3337L75.9174 116.662L73.8407 118.753L73.7638 118.826C73.6823 118.908 73.5963 118.994 73.5104 119.071C73.4444 119.14 73.375 119.205 73.3022 119.267C71.6098 120.802 69.579 121.912 67.3767 122.506C65.1744 123.099 62.8634 123.159 60.6335 122.681L60.353 122.617C57.7746 121.984 55.4171 120.656 53.5345 118.776L49.7293 115.203C48.6722 114.27 47.8121 113.134 47.2001 111.861C46.718 110.848 46.3053 109.803 45.9649 108.734C45.9623 108.713 45.9623 108.691 45.9649 108.67C45.9015 108.47 45.8472 108.265 45.7884 108.056C45.2357 106.017 44.8856 103.928 44.7433 101.819C44.7433 101.819 44.7433 101.796 44.7433 101.778C44.6686 99.8955 44.7519 98.0097 44.9921 96.141C46.1278 86.6307 51.5256 80.198 53.6385 77.9158L62.3483 86.6625C62.7139 87.0292 63.2094 87.2352 63.726 87.2352C64.2426 87.2352 64.7381 87.0292 65.1038 86.6625L96.7123 54.9036C96.7888 54.8279 96.8495 54.7376 96.8909 54.6381C96.9324 54.5386 96.9537 54.4318 96.9537 54.324C96.9537 54.2161 96.9324 54.1093 96.8909 54.0098C96.8495 53.9103 96.7888 53.8201 96.7123 53.7443L86.9121 43.8884C84.2445 41.2088 82.7457 37.5742 82.7452 33.7841C82.7448 29.9941 84.2429 26.3591 86.9098 23.6789C89.5768 20.9986 93.1942 19.4926 96.9663 19.4922C100.738 19.4918 104.356 20.9969 107.024 23.6766L117.403 34.1326C118.738 35.41 125.977 42.7838 126 54.5399Z" fill="url(#paint1_linear_868_18738)"/>
<path d="M62.1177 24.9909C55.6567 31.3009 53.0279 34.5741 44.0829 42.6706C32.8303 52.8402 27.5139 58.2682 25.0345 66.5239C22.2655 75.7479 24.5232 84.44 25.1476 86.6312C25.7682 88.8027 26.5908 90.9108 27.6044 92.9275C18.5553 84.249 11.8771 77.439 9.14877 74.2886C8.0509 73.0313 7.05958 71.684 6.18518 70.2608C5.01764 68.3778 4.07026 66.3657 3.36186 64.2645C2.50911 61.6896 2.05141 58.9994 2.0045 56.2861C1.95207 53.3941 2.35834 50.5122 3.20803 47.7486C4.56422 43.4149 6.94578 39.4762 10.1487 36.2698C20.6457 25.6835 31.1381 15.0911 41.626 4.49268C43.7583 2.30683 46.5061 0.829982 49.4992 0.261017C52.4924 -0.307949 55.5872 0.0582961 58.3669 1.31043C60.4503 2.26342 62.2763 3.70376 63.6923 5.511C64.8108 6.96428 65.6404 8.62043 66.1355 10.3889C66.8365 12.9608 66.8333 15.6752 66.1261 18.2453C65.4189 20.8155 64.034 23.1461 62.1177 24.9909Z" fill="url(#paint2_linear_868_18738)"/>
<path d="M23.6641 82.7808C23.5246 81.7252 23.44 80.663 23.4107 79.5986C23.3853 78.194 23.4685 76.7896 23.6596 75.398C23.879 73.9295 24.2026 72.4786 24.6278 71.0565C25.9881 66.7239 28.3727 62.7869 31.5775 59.5822L44.8028 46.2258C47.528 43.8475 51.0479 42.5933 54.6556 42.7151C58.2632 42.837 61.6914 44.3258 64.2516 46.8826C66.8117 49.4394 68.3142 52.8747 68.4573 56.4987C68.6004 60.1227 67.3735 63.667 65.023 66.4195C64.7832 66.6923 64.5344 66.965 64.2765 67.2287L53.6347 77.9256L53.5126 78.0484L53.1144 78.4439L52.8701 78.7394C49.1061 83.3061 46.5991 88.7843 45.5991 94.6279C44.5988 100.975 45.4572 107.478 48.0695 113.344L26.7498 92.1139C26.13 90.9092 24.2342 86.9132 23.6641 82.7808Z" fill="url(#paint3_linear_868_18738)"/>
<defs>
<radialGradient id="paint0_radial_868_18738" cx="0" cy="0" r="1" gradientUnits="userSpaceOnUse" gradientTransform="translate(64.1989 124.397) rotate(90) scale(15.5997 64.1989)">
<stop stop-color="#010119" stop-opacity="0.39"/>
<stop offset="1" stop-color="#C4C4C4" stop-opacity="0"/>
</radialGradient>
<linearGradient id="paint1_linear_868_18738" x1="45.2048" y1="69.6147" x2="70.3754" y2="70.7765" gradientUnits="userSpaceOnUse">
<stop stop-color="#004F02"/>
<stop offset="0.16" stop-color="#006106"/>
<stop offset="1" stop-color="#43A750"/>
</linearGradient>
<linearGradient id="paint2_linear_868_18738" x1="6.46657" y1="11.0477" x2="70.0245" y2="57.0241" gradientUnits="userSpaceOnUse">
<stop stop-color="#6BC048"/>
<stop offset="1" stop-color="#43A750"/>
</linearGradient>
<linearGradient id="paint3_linear_868_18738" x1="26.5191" y1="51.1047" x2="73.3799" y2="82.1841" gradientUnits="userSpaceOnUse">
<stop stop-color="#6BC048"/>
<stop offset="1" stop-color="#43A750"/>
</linearGradient>
</defs>
</svg>
