<svg width="34" height="34" viewBox="0 0 34 34" fill="none" xmlns="http://www.w3.org/2000/svg">
<path d="M16.3855 6.85966C14.6261 8.59902 13.9083 9.49868 11.4717 11.7235C8.40429 14.52 6.95569 16.0119 6.28041 18.2836C5.52559 20.8195 6.14166 23.2074 6.31187 23.809C6.48053 24.4059 6.70478 24.9851 6.98159 25.539C4.50805 23.1549 2.69313 21.2843 1.9494 20.4128C1.6483 20.0654 1.37662 19.693 1.13722 19.2994C0.820487 18.7844 0.563478 18.2341 0.371289 17.6594C0.138429 16.9518 0.0136514 16.2123 0.0012751 15.4665C-0.0133442 14.6696 0.0978285 13.8755 0.330588 13.1142C0.700871 11.9254 1.34959 10.8451 2.22136 9.96539C5.08157 7.05521 7.94178 4.14379 10.802 1.23111C11.3831 0.632939 12.1305 0.228646 12.9444 0.0722399C13.7583 -0.0841664 14.5999 0.0147616 15.3569 0.355808C15.9242 0.618187 16.4215 1.01402 16.8073 1.51038C17.1126 1.91005 17.3388 2.36575 17.4733 2.85239C17.6646 3.5577 17.6645 4.30223 17.4731 5.0075C17.2816 5.71277 16.9059 6.35264 16.3855 6.85966Z" fill="#FAFAFA"/>
<path d="M34.0006 15.1858C34.0006 18.5052 31.9174 20.5613 31.5622 20.9025L20.3526 32.2589L19.7865 32.8343L19.7661 32.853L19.6977 32.9224L19.6403 32.9749C19.1797 33.3969 18.6266 33.702 18.0267 33.865C17.4268 34.0279 16.7972 34.044 16.1899 33.912L16.1122 33.8952C15.4124 33.7201 14.7729 33.3553 14.2622 32.8399L13.2169 31.8578C12.9277 31.6023 12.6929 31.2898 12.5268 30.9394C12.3943 30.661 12.2812 30.3735 12.1882 30.0791C12.1882 30.0791 12.1882 30.0678 12.1882 30.0622C12.1716 30.0078 12.1568 29.9516 12.1401 29.8935C11.9923 29.333 11.8987 28.7593 11.8608 28.1804V28.1692C11.8403 27.6514 11.8632 27.1329 11.9292 26.6191C12.2382 24.0063 13.709 22.2388 14.2844 21.6109L16.6525 24.0101C16.7018 24.06 16.7603 24.0997 16.8248 24.1268C16.8892 24.1538 16.9583 24.1677 17.028 24.1677C17.0978 24.1677 17.1668 24.1538 17.2313 24.1268C17.2957 24.0997 17.3543 24.06 17.4036 24.0101L26.0194 15.2814C26.0405 15.2608 26.0573 15.236 26.0688 15.2087C26.0803 15.1813 26.0862 15.1518 26.0862 15.1221C26.0862 15.0923 26.0803 15.0629 26.0688 15.0355C26.0573 15.0082 26.0405 14.9834 26.0194 14.9628L23.3479 12.2544C22.7004 11.5027 22.3589 10.5299 22.3923 9.53287C22.4257 8.53578 22.8317 7.58876 23.528 6.88331C24.2243 6.17786 25.1591 5.76662 26.1433 5.73274C27.1275 5.69886 28.0876 6.04488 28.8296 6.70083L31.6584 9.56664C32.0191 9.92839 34.0006 11.9508 34.0006 15.1858Z" fill="url(#paint0_linear_892_21051)"/>
<path d="M14.2483 32.8894L12.768 31.39C10.642 26.4552 13.6601 22.1683 14.2484 21.6436L16.7464 24.0802L14.2483 32.8894Z" fill="url(#paint1_linear_892_21051)"/>
<path d="M6.10664 22.943C6.06824 22.6521 6.04539 22.3593 6.03818 22.0658C6.0317 21.6798 6.05459 21.2938 6.10664 20.9113C6.16533 20.5081 6.25251 20.1097 6.3675 19.7192C6.73736 18.5283 7.38753 17.4463 8.26197 16.5666L11.8659 12.8967C12.6086 12.2443 13.5672 11.9004 14.5496 11.9339C15.5321 11.9674 16.4657 12.3759 17.1633 13.0775C17.861 13.779 18.2711 14.7218 18.3115 15.7169C18.3518 16.7119 18.0194 17.6856 17.381 18.4428C17.3162 18.5178 17.2478 18.5909 17.1775 18.664L14.2765 21.6048L14.2432 21.6385L14.1341 21.7491L14.0675 21.8297C13.0429 23.0857 12.3598 24.5911 12.0861 26.1968C11.8162 27.9418 12.0528 29.7286 12.7669 31.3399L6.94657 25.5052C6.5396 24.6994 6.25636 23.8354 6.10664 22.943Z" fill="#FAFAFA"/>
<defs>
<linearGradient id="paint0_linear_892_21051" x1="3.60941" y1="14.1455" x2="18.1632" y2="18.4461" gradientUnits="userSpaceOnUse">
<stop offset="0.01" stop-color="white"/>
<stop offset="1" stop-color="white"/>
</linearGradient>
<linearGradient id="paint1_linear_892_21051" x1="8.04939" y1="24.9236" x2="15.8339" y2="26.9364" gradientUnits="userSpaceOnUse">
<stop stop-color="#C4C4C4"/>
<stop offset="1" stop-color="#C4C4C4" stop-opacity="0"/>
</linearGradient>
</defs>
</svg>
